<?xml version="1.0" standalone="no"?>
<!DOCTYPE svg PUBLIC "-//W3C//DTD SVG 20010904//EN"
 "http://www.w3.org/TR/2001/REC-SVG-20010904/DTD/svg10.dtd">
<svg version="1.0" xmlns="http://www.w3.org/2000/svg"
 width="1083.000000pt" height="1083.000000pt" viewBox="0 0 1083.000000 1083.000000"
 preserveAspectRatio="xMidYMid meet">
<metadata>
Created by potrace 1.11, written by Peter Selinger 2001-2013
</metadata>
<g transform="translate(0.000000,1083.000000) scale(0.100000,-0.100000)"
fill="#000000" stroke="none">
<path d="M5107 10033 c-1 0 -78 -4 -172 -8 -93 -4 -186 -8 -205 -10 -19 -1
-80 -6 -135 -9 -55 -4 -120 -9 -145 -12 -91 -9 -146 -14 -180 -19 -19 -3 -55
-7 -80 -10 -62 -8 -120 -15 -150 -20 -45 -6 -115 -17 -135 -21 -10 -2 -35 -6
-55 -9 -20 -3 -47 -7 -60 -10 -25 -5 -122 -23 -170 -32 -14 -2 -54 -11 -90
-19 -36 -9 -74 -17 -86 -20 -11 -2 -56 -13 -100 -24 -43 -12 -88 -23 -99 -25
-11 -3 -51 -14 -90 -25 -38 -12 -77 -23 -85 -25 -49 -12 -211 -70 -305 -110
-325 -136 -537 -314 -600 -505 -74 -225 5 -427 223 -570 201 -132 488 -184
742 -135 14 3 34 7 45 9 208 39 553 209 825 405 224 161 583 389 775 491 157
83 186 97 390 181 29 12 215 67 250 73 17 4 41 9 55 11 88 19 131 26 175 31
28 3 61 7 75 10 152 24 532 23 785 -1 59 -6 201 -24 230 -30 11 -2 45 -9 75
-14 30 -6 65 -13 78 -16 13 -2 32 -7 42 -10 10 -3 27 -8 37 -10 154 -33 409
-142 531 -226 174 -122 252 -243 258 -405 7 -190 -87 -349 -313 -530 -51 -41
-95 -74 -98 -74 -4 0 -19 -9 -34 -19 -157 -112 -722 -390 -1566 -771 -80 -36
-481 -212 -500 -220 -11 -4 -55 -24 -98 -44 -42 -20 -79 -36 -81 -36 -3 0 -42
-17 -88 -39 -46 -21 -123 -57 -173 -79 -49 -22 -119 -53 -155 -70 -36 -16
-132 -61 -215 -99 -315 -146 -411 -192 -765 -371 -201 -100 -372 -187 -380
-192 -8 -5 -58 -33 -110 -61 -306 -167 -563 -338 -787 -524 -120 -100 -339
-315 -423 -415 -30 -36 -58 -67 -61 -70 -20 -17 -157 -203 -216 -294 -58 -88
-161 -281 -204 -381 -69 -161 -127 -391 -147 -580 -18 -172 -3 -456 33 -635
37 -188 138 -443 254 -644 152 -264 418 -565 701 -796 30 -25 57 -47 60 -50 3
-3 57 -44 120 -91 535 -398 1131 -681 1780 -843 96 -24 189 -47 205 -49 17 -3
91 -17 165 -30 74 -14 155 -28 180 -31 106 -15 190 -25 265 -32 44 -3 94 -8
110 -10 249 -28 863 -22 1155 11 25 2 70 7 100 11 30 3 98 12 150 20 52 8 111
17 130 20 19 3 64 11 100 19 36 8 81 17 100 20 184 30 589 156 820 255 747
318 1273 761 1543 1298 73 144 137 319 163 441 3 12 11 51 19 85 29 129 46
293 48 466 0 74 -11 292 -18 320 -5 22 -16 82 -21 115 -3 22 -8 43 -10 46 -2
3 -6 21 -9 40 -3 19 -24 88 -46 154 -146 438 -442 823 -900 1168 -55 42 -316
217 -323 217 -2 0 -35 19 -72 42 -306 186 -716 369 -1134 508 -101 33 -410
122 -470 135 -8 2 -55 13 -105 24 -211 49 -540 110 -685 127 -30 3 -57 7 -60
9 -3 1 -36 6 -75 10 -38 4 -86 9 -105 11 -19 3 -64 7 -100 10 -36 3 -67 8 -69
10 -6 5 5 13 174 127 279 190 610 392 1085 662 489 277 654 376 910 543 428
280 605 440 752 682 8 14 28 59 43 100 140 387 6 733 -381 983 -185 120 -551
271 -780 322 -10 2 -56 13 -101 24 -45 11 -92 22 -105 25 -13 2 -34 7 -48 10
-14 3 -36 8 -50 10 -14 3 -50 10 -80 16 -30 6 -68 12 -85 15 -16 2 -48 7 -70
10 -22 3 -58 8 -80 11 -22 3 -51 7 -65 9 -66 9 -122 16 -176 20 -32 3 -79 7
-104 10 -170 18 -416 28 -758 29 -173 1 -314 0 -315 -1z m-47 -3923 c36 -5 81
-12 100 -14 89 -13 125 -19 275 -47 820 -156 1432 -467 1812 -921 66 -79 213
-294 213 -312 0 -5 6 -17 13 -25 26 -31 105 -218 145 -341 36 -114 73 -268 87
-366 3 -22 8 -50 10 -64 27 -158 27 -690 -1 -815 -2 -11 -6 -36 -8 -55 -8 -60
-27 -152 -51 -250 -116 -457 -348 -822 -715 -1120 -197 -160 -421 -293 -645
-383 -95 -38 -258 -91 -318 -103 -10 -2 -26 -5 -35 -8 -9 -3 -28 -7 -42 -10
-14 -2 -36 -7 -50 -10 -14 -3 -45 -8 -70 -11 -25 -3 -55 -7 -67 -9 -122 -24
-566 -25 -690 -2 -10 2 -40 7 -66 10 -73 10 -255 48 -293 61 -8 2 -5 31 11 97
39 163 48 264 49 590 1 137 2 248 4 248 1 0 21 -14 45 -31 95 -69 255 -129
424 -159 90 -16 143 -19 323 -16 118 3 231 7 250 10 71 12 106 18 135 23 17 2
57 11 90 20 33 8 67 16 75 18 83 17 242 91 347 161 105 70 250 207 303 286
148 222 173 473 68 683 -96 192 -332 364 -645 468 l-101 34 84 42 c245 123
396 274 439 442 44 171 -1 340 -125 468 -128 132 -397 247 -675 286 -22 3 -45
8 -52 10 -6 2 -65 7 -130 11 -425 26 -736 -25 -993 -164 -201 -109 -311 -232
-356 -399 -39 -148 -41 -225 -42 -1483 0 -1080 -2 -1277 -17 -1355 -2 -11 -4
-32 -4 -47 -1 -16 -6 -28 -12 -28 -16 0 -144 85 -239 159 -338 262 -573 603
-698 1016 -32 104 -67 263 -77 350 -4 28 -8 60 -10 72 -24 148 -23 522 2 668
2 17 6 44 9 60 2 17 8 53 14 80 5 28 12 62 15 78 12 64 16 81 24 96 5 9 9 19
9 24 1 19 37 131 69 217 74 196 204 434 341 625 128 178 214 278 402 465 132
131 166 163 265 245 33 28 62 52 65 55 34 34 285 220 430 319 l105 72 55 -6
c30 -3 84 -10 120 -15z m555 -1265 c150 -37 293 -131 352 -232 125 -214 75
-540 -118 -765 l-38 -45 -68 13 c-37 7 -99 16 -138 20 -38 3 -79 8 -90 10 -30
6 -215 5 -250 -1 -112 -19 -148 -43 -148 -97 0 -71 93 -101 313 -102 143 -1
181 2 312 20 44 6 50 4 110 -39 200 -144 355 -392 396 -637 8 -48 8 -206 0
-255 -21 -117 -81 -233 -175 -335 -61 -66 -88 -85 -165 -124 -92 -45 -211 -79
-318 -91 -69 -7 -260 -7 -320 1 -210 27 -384 102 -502 217 l-44 42 1 965 c2
1009 3 1030 46 1146 51 136 238 261 446 298 104 18 307 14 398 -9z"/>
</g>
</svg>
